<svg xmlns="http://www.w3.org/2000/svg" width="63" height="37" viewBox="0 0 63 37"><path fill="#FFF" fill-rule="evenodd" d="M51.87 27.06c-.36.8-2.13 2-4 2-1.5 0-2.9-.96-2.9-2.64 0-4.5 4.24-6.1 6.34-6.1 1.4 0 2.62.47 2.62 1.96 0 4.58 2.13 8.5 6.03 8.5 1.37 0 1.77-1.16 2.56-1.16.18 0 .5.12.5.45 0 .7-1.5 1.6-3.75 1.6-5.1.03-6.98-3.43-7.38-4.6zm-4.15-1.4c0 1.06.6 1.6 1.2 1.6.9 0 2.3-1.43 2.3-4.2 0-.54-.1-1.17-.85-1.17-.95 0-2.65 1.7-2.65 3.75zM33.7 36.88c-.24 0-.53-.04-.53-.28 0-.3 2.1-2.35 3.07-8.9-.58.67-2.2 1.38-3.1 1.38-1.03 0-1.47-.94-1.47-1.33-.34.43-1.47 1.33-3.23 1.33-1.45 0-2.66-.97-2.66-2.95 0-2.8 2.5-5.83 6.32-5.83 1.2 0 2.4.47 2.4 1.9 0 1.03-.26 2.16-.26 3 0 1.05.12 1.56.34 1.83.5 0 1.33-.45 1.9-1.1.55-6.16-1.27-10.9-1.27-11.3 0-.56 1.48-1.15 2.56-1.22.4-.03.63 0 .73.18.6 1.04 1.05 4.62.88 7.18.4-.46 1.4-1.07 2.6-1.07 1.1 0 2.86.6 2.86 2.9 0 2.72-1.62 4.95-6.66 7.9-.64 2.3-.97 3.27-1.92 5.66-.2.5-.9.73-2.57.73zm-5.03-11.3c0 1.3.5 1.76 1.05 1.76 1.18 0 2.13-2.2 2.13-4.43 0-.67-.2-1.18-.82-1.18-.92 0-2.36 1.64-2.36 3.85zm10.77-2.92c-.07.85-.4 3.65-.8 5.34 4.26-2.23 4.15-6.28 2.62-6.28-.82 0-1.47.5-1.82.94zM12.5 9.63c-2.48 0-7.66 1.03-7.66 4.92 0 2.87 2.8 3.15 2.8 3.43 0 .56-1.3 2.06-3.4 2.06C1.17 20.04 0 17.42 0 15.4c0-2.32 1.2-7.35 10.7-7.35 4.15 0 7.8.98 8.97 1.5-1.03-.64-3.54-2.17-3.54-5.62 0-1.67.7-3.93 2.6-3.93 1.9 0 3.5.95 3.5 1.6 0 .9-2.37 1.6-2.37 3.98 0 3.5 5.77 4.22 5.77 4.55 0 .42-3.22 1.45-4.12 1.45-.84 0-2.45-1.95-9-1.95zM7.7 30.47c0 .77-.44 1.02-.44 1.56 0 .33.18.45.5.45 1.67 0 3.27-3.05 3.27-8.33 0-7.6-2.46-9.93-2.46-10.75 0-.8 2.03-1.28 3-1.28 1.22 0 2.42 3.72 2.42 8.75 0 7.8-2.94 12.72-6.74 12.72-.67 0-1.5-.23-1.5-.94 0-.7.28-.77.3-1.37 0-.45-.18-.85-.75-.85-.55 0-.85.37-.85.9 0 .64.48.88.48.94 0 .14-.42.64-1.33.64-.94 0-2.2-.67-2.2-2.38 0-.98.73-2.85 3.2-2.85 1.4 0 3.1.83 3.1 2.77zm10.37-18.22c.45 0 1 .84 1.27 4.2.37-.25 1.34-.82 2.22-.82.9 0 2.08.62 2.08 2.13 0 2.14-1.78 3.48-2.43 3.95.26-.13.94-.42 1.7-.42 1.2 0 2.43.5 2.43 2.4 0 4.3-4.3 6.37-7.66 7.8-.3 1.12-1.15 3.18-1.98 4.85-.27.5-1.87.55-2.44.55-.33 0-.6-.05-.6-.3 0-.32 4.06-5.06 4.06-13.3 0-7.26-1.4-9.26-1.4-9.73 0-.6 1.57-1.3 2.75-1.3zm2.37 5.08c-.54 0-.84.4-.95.5.07 1.23.04 2.5-.02 3.74.62-.47 1.78-1.3 1.78-3.15 0-.55-.32-1.1-.82-1.1zm.94 5.54c-1.06 0-2.1.94-2.14 1.18-.24 2-.55 3.46-.98 5.23 1.6-.7 4.3-2.77 4.3-4.92 0-1.22-.7-1.5-1.18-1.5z"/></svg>