<svg xmlns="http://www.w3.org/2000/svg" width="26" height="26" viewBox="0 0 26 26"><g fill="none" fill-rule="evenodd"><path d="M0 0h26v26H0z"/><path fill="#000" d="M10.53 16.32h3.6c-1.03 3.45-4.4 4.22-6.66 4.33v.1s-1.98 3.63-3.48 4c-1.4.35-2.5.24-2.9.2l.2-.3c.7-.6 2.5-2.25 3.53-4.48-.6 1.27 2.34-4.08 4.95-7.12 3.1-3.63 7.1-6.76 7.1-6.76s-4 .7-7.2 3.5c-1.5 1.3-2.57 2.8-4.46 5.92.9-3.58 3.08-7.4 4.38-8.84C15.7.15 23.8 1.82 23.9 3.05c.86 10.75-13.43 13.2-13.43 13.2zm-9.45 8.62H1l.08-.08v.08z"/></g></svg>