<svg xmlns="http://www.w3.org/2000/svg" width="26" height="26" viewBox="0 0 26 26"><g fill="none" fill-rule="evenodd"><path d="M0 0h26v26H0z"/><path fill="#000" d="M6.4 11.57c3-6.38 4.54-8.8 9.43-8.7 1.75.04 1.33-1.25 2.66-.76 1.3.5.12 1.2 1.5 2.3 3.8 3.1 3.44 6 1.7 12.8-.77 2.9 1.8 3 .8 5.8-.76 2.08-6.17 2.9-11.87.8-5.7-2.1-9.3-6.22-8.58-8.3 1-2.8 3.02-1.2 4.3-3.9zm4.9 10.5c5.08 1.87 9.27.77 9.45.28.3-.84-1.65-3.66-7.47-5.8-5.83-2.14-9.08-1.34-9.42-.4-.2.55 2.33 4.05 7.43 5.92zm1.62-4.54c2.67.98 4.52 2.1 5.72 3.1-.85.76-2.43.95-4 .37-2-.74-3.24-2.43-2.75-3.77v-.05l1 .35z"/></g></svg>