<svg xmlns="http://www.w3.org/2000/svg" width="24" height="24" viewBox="0 0 24 24"><g fill="none" fill-rule="evenodd"><path d="M0 0h24v24H0"/><path fill="#000" d="M21.423 4.037l-20.15 6.727c-.324.107-.397.372-.012.518l4.333 1.644 2.568.976S20.53 5.297 20.7 5.182c.168-.12.363.102.24.228l-8.983 9.203-.517.544.683.35 5.686 2.898c.332.17.763.028.86-.36.112-.462 3.246-13.258 3.316-13.542.09-.37-.168-.596-.56-.466zM8.138 19.743c0 .266.16.34.378.152.286-.246 3.25-2.767 3.25-2.767l-3.628-1.78v4.395z"/></g></svg>